HIERARCHY
ROOT Hips
{
	OFFSET 0.000000 89.005402 0.000000
	CHANNELS 6 Xposition Yposition Zposition Xrotation Yrotation Zrotation
	JOINT Spine
	{
		OFFSET 0.116900 10.681000 0.373400
		CHANNELS 3 Xrotation Yrotation Zrotation
		JOINT Spine1
		{
			OFFSET 0.000000 13.840401 0.053500
			CHANNELS 3 Xrotation Yrotation Zrotation
			JOINT Spine2
			{
				OFFSET 0.000000 14.712700 -0.366200
				CHANNELS 3 Xrotation Yrotation Zrotation
				JOINT Neck
				{
					OFFSET 0.000000 35.415497 -3.314200
					CHANNELS 3 Xrotation Yrotation Zrotation
					JOINT Head
					{
						OFFSET 0.000000 16.899200 1.218300
						CHANNELS 3 Xrotation Yrotation Zrotation
						JOINT HeadTop_End
						{
							OFFSET 0.000000 22.206207 2.192500
							CHANNELS 3 Xrotation Yrotation Zrotation
							End Site
							{
								OFFSET 0.000000 22.314178 0.000000
							}
						}
					}
				}
				JOINT LeftShoulder
				{
					OFFSET 12.896400 26.716293 -4.548400
					CHANNELS 3 Xrotation Yrotation Zrotation
					JOINT LeftArm
					{
						OFFSET 19.027000 -4.857010 -1.718400
						CHANNELS 3 Xrotation Yrotation Zrotation
						JOINT LeftForeArm
						{
							OFFSET 24.179897 0.000000 0.000000
							CHANNELS 3 Xrotation Yrotation Zrotation
							JOINT LeftHand
							{
								OFFSET 27.156403 0.000000 0.000000
								CHANNELS 3 Xrotation Yrotation Zrotation
								JOINT LeftHandIndex1
								{
									OFFSET 16.441200 0.000000 0.000000
									CHANNELS 3 Xrotation Yrotation Zrotation
									JOINT LeftHandIndex2
									{
										OFFSET 4.821899 0.000000 0.000000
										CHANNELS 3 Xrotation Yrotation Zrotation
										JOINT LeftHandIndex3
										{
											OFFSET 6.386497 0.000000 0.000000
											CHANNELS 3 Xrotation Yrotation Zrotation
											JOINT LeftHandIndex4
											{
												OFFSET 5.188988 0.000000 0.000000
												CHANNELS 3 Xrotation Yrotation Zrotation
												End Site
												{
													OFFSET -0.178703 5.185913 0.000177
												}
											}
										}
									}
								}
								JOINT LeftHandThumb1
								{
									OFFSET 6.534897 -5.032593 5.900300
									CHANNELS 3 Xrotation Yrotation Zrotation
									JOINT LeftHandThumb2
									{
										OFFSET 3.818176 -2.204422 2.204423
										CHANNELS 3 Xrotation Yrotation Zrotation
										JOINT LeftHandThumb3
										{
											OFFSET 3.252098 -1.877594 1.877601
											CHANNELS 3 Xrotation Yrotation Zrotation
											JOINT LeftHandThumb4
											{
												OFFSET 5.251778 -3.032120 3.032117
												CHANNELS 3 Xrotation Yrotation Zrotation
												End Site
												{
													OFFSET 0.000023 6.780014 0.000000
												}
											}
										}
									}
								}
							}
						}
					}
				}
				JOINT RightShoulder
				{
					OFFSET -12.896300 26.716293 -4.548400
					CHANNELS 3 Xrotation Yrotation Zrotation
					JOINT RightArm
					{
						OFFSET -19.027000 -4.857010 -1.718400
						CHANNELS 3 Xrotation Yrotation Zrotation
						JOINT RightForeArm
						{
							OFFSET -24.179897 0.000000 0.000000
							CHANNELS 3 Xrotation Yrotation Zrotation
							JOINT RightHand
							{
								OFFSET -27.156403 0.000000 0.000000
								CHANNELS 3 Xrotation Yrotation Zrotation
								JOINT RightHandThumb1
								{
									OFFSET -6.591202 -4.852203 5.988100
									CHANNELS 3 Xrotation Yrotation Zrotation
									JOINT RightHandThumb2
									{
										OFFSET -3.818176 -2.204422 2.204423
										CHANNELS 3 Xrotation Yrotation Zrotation
										JOINT RightHandThumb3
										{
											OFFSET -3.252098 -1.877594 1.877601
											CHANNELS 3 Xrotation Yrotation Zrotation
											JOINT RightHandThumb4
											{
												OFFSET -5.251778 -3.032120 3.032117
												CHANNELS 3 Xrotation Yrotation Zrotation
												End Site
												{
													OFFSET -0.000023 6.780014 0.000000
												}
											}
										}
									}
								}
								JOINT RightHandIndex1
								{
									OFFSET -16.029404 0.000000 0.000000
									CHANNELS 3 Xrotation Yrotation Zrotation
									JOINT RightHandIndex2
									{
										OFFSET -5.213303 0.000000 0.000000
										CHANNELS 3 Xrotation Yrotation Zrotation
										JOINT RightHandIndex3
										{
											OFFSET -6.386528 0.000000 0.000000
											CHANNELS 3 Xrotation Yrotation Zrotation
											JOINT RightHandIndex4
											{
												OFFSET -5.189026 0.000000 0.000000
												CHANNELS 3 Xrotation Yrotation Zrotation
												End Site
												{
													OFFSET 0.236702 5.183624 0.001972
												}
											}
										}
									}
								}
							}
						}
					}
				}
			}
		}
	}
	JOINT LeftUpLeg
	{
		OFFSET 14.073000 -7.904099 -1.463000
		CHANNELS 3 Xrotation Yrotation Zrotation
		JOINT LeftLeg
		{
			OFFSET -0.109806 -34.073280 4.093200
			CHANNELS 3 Xrotation Yrotation Zrotation
			JOINT LeftFoot
			{
				OFFSET 0.109806 -29.899420 -6.319000
				CHANNELS 3 Xrotation Yrotation Zrotation
				JOINT LeftToeBase
				{
					OFFSET 1.551100 -14.988700 20.535801
					CHANNELS 3 Xrotation Yrotation Zrotation
					JOINT LeftToe_End
					{
						OFFSET 0.221200 0.570800 13.248301
						CHANNELS 3 Xrotation Yrotation Zrotation
						End Site
						{
							OFFSET 0.000000 13.262435 0.000000
						}
					}
				}
			}
		}
	}
	JOINT RightUpLeg
	{
		OFFSET -13.839300 -7.904099 -1.463000
		CHANNELS 3 Xrotation Yrotation Zrotation
		JOINT RightLeg
		{
			OFFSET 0.109694 -34.073219 4.093300
			CHANNELS 3 Xrotation Yrotation Zrotation
			JOINT RightFoot
			{
				OFFSET -0.109694 -29.899384 -6.319200
				CHANNELS 3 Xrotation Yrotation Zrotation
				JOINT RightToeBase
				{
					OFFSET -1.551100 -14.988700 20.535801
					CHANNELS 3 Xrotation Yrotation Zrotation
					JOINT RightToe_End
					{
						OFFSET -0.221200 0.570900 13.248299
						CHANNELS 3 Xrotation Yrotation Zrotation
						End Site
						{
							OFFSET 0.000000 13.262440 0.000000
						}
					}
				}
			}
		}
	}
}
MOTION
Frames: 6
Frame Time: 0.033333
-0.060476 83.482086 147.533173 2.087580 2.473297 -0.751386 5.389474 -1.745619 0.393413 2.637182 -3.077572 1.610247 2.610758 -3.035669 1.740100 -0.266873 2.329601 0.237285 -3.824673 5.448847 -1.844086 0.000000 -0.000000 -0.000000 0.348437 -9.526645 -14.079159 6.603266 -27.348188 -55.497650 0.000002 -13.780656 -0.000008 1.546005 2.318200 -6.051358 -1.843200 -2.328926 -21.037350 0.202025 1.526707 -15.075015 0.202027 1.526718 -15.075013 0.000001 0.000000 -0.000000 5.264573 3.579092 10.848979 6.321197 9.485373 5.606632 1.996396 -8.682545 21.324493 0.000001 0.000003 0.000000 0.576404 3.778200 16.157560 3.193897 25.398752 50.569867 -0.000005 20.081489 0.000027 -3.608119 -2.535526 8.002199 12.604590 -3.092102 -3.819367 5.732331 -19.000166 -7.549587 -16.152897 -1.491114 -12.130459 0.000003 -0.000001 -0.000003 -2.778596 3.925337 22.075098 0.395897 -1.880770 23.772021 0.078357 -0.851614 10.513762 -0.000000 -0.000003 -0.000003 -25.661202 9.824264 5.728478 63.873422 -5.270822 1.325394 5.313311 -0.100102 -1.850843 -46.755903 -2.364732 3.026381 0.000000 -0.000001 -0.000000 -22.292723 -7.280919 1.495184 32.043047 1.554150 -2.775579 -12.722471 0.107822 -0.856562 -5.300453 -0.000001 0.000000 0.000000 0.000000 -0.000000 
0.239954 85.230087 152.059494 1.940115 1.893649 -0.709313 6.185852 -1.177653 0.587126 2.498172 -2.419468 1.232352 2.471489 -2.375261 1.342051 -0.476780 2.129173 -0.237485 -3.193112 4.531020 -1.876713 -0.000000 -0.000000 0.000000 0.352374 -9.169219 -14.380745 9.011961 -24.442279 -57.554582 0.000011 -11.061372 -0.000006 3.271981 3.566763 -10.594318 -2.233897 -4.155358 -17.702602 0.202676 1.529136 -15.099434 0.202674 1.529121 -15.099458 -0.000001 0.000006 0.000000 5.264580 3.579092 10.848983 6.475013 8.367001 6.368035 2.011413 -7.323815 21.364147 0.000000 -0.000003 -0.000001 0.552462 4.135210 15.717228 2.585515 28.440243 49.448739 -0.000003 23.198765 0.000026 -1.370139 0.937412 5.904128 12.604592 -3.092101 -3.819368 4.958737 -19.016355 -8.084343 -16.138079 -1.566951 -12.127655 -0.000002 0.000001 0.000001 -2.604760 4.001046 20.792740 0.394937 -1.878588 23.742692 0.077860 -0.848916 10.480026 -0.000001 -0.000002 -0.000000 -28.489658 9.362114 4.454727 54.995877 -3.718168 -0.328525 0.423657 -0.577080 1.463731 -29.131460 -0.725740 1.896953 0.000000 -0.000001 0.000000 -14.327005 -7.621538 2.590123 24.657024 2.398145 -4.531299 -12.997211 -0.029253 0.402796 -4.971783 0.000001 -0.000000 -0.000001 -0.000000 0.000000 
0.239954 85.230087 152.059494 1.940115 1.893649 -0.709313 6.185852 -1.177653 0.587126 2.498172 -2.419468 1.232352 2.471489 -2.375261 1.342051 -0.476780 2.129173 -0.237485 -3.193112 4.531020 -1.876713 -0.000000 -0.000000 0.000000 0.352374 -9.169219 -14.380745 9.011961 -24.442279 -57.554582 0.000011 -11.061372 -0.000006 3.271981 3.566763 -10.594318 -2.233897 -4.155358 -17.702602 0.202676 1.529136 -15.099434 0.202674 1.529121 -15.099458 -0.000001 0.000006 0.000000 5.264580 3.579092 10.848983 6.475013 8.367001 6.368035 2.011413 -7.323815 21.364147 0.000000 -0.000003 -0.000001 0.552462 4.135210 15.717228 2.585515 28.440243 49.448739 -0.000003 23.198765 0.000026 -1.370139 0.937412 5.904128 12.604592 -3.092101 -3.819368 4.958737 -19.016355 -8.084343 -16.138079 -1.566951 -12.127655 -0.000002 0.000001 0.000001 -2.604760 4.001046 20.792740 0.394937 -1.878588 23.742692 0.077860 -0.848916 10.480026 -0.000001 -0.000002 -0.000000 -28.489658 9.362114 4.454727 54.995877 -3.718168 -0.328525 0.423657 -0.577080 1.463731 -29.131460 -0.725740 1.896953 0.000000 -0.000001 0.000000 -14.327005 -7.621538 2.590123 24.657024 2.398145 -4.531299 -12.997211 -0.029253 0.402796 -4.971783 0.000001 -0.000000 -0.000001 -0.000000 0.000000 
0.239954 85.230087 152.059494 1.940115 1.893649 -0.709313 6.185852 -1.177653 0.587126 2.498172 -2.419468 1.232352 2.471489 -2.375261 1.342051 -0.476780 2.129173 -0.237485 -3.193112 4.531020 -1.876713 -0.000000 -0.000000 0.000000 0.352374 -9.169219 -14.380745 9.011961 -24.442279 -57.554582 0.000011 -11.061372 -0.000006 3.271981 3.566763 -10.594318 -2.233897 -4.155358 -17.702602 0.202676 1.529136 -15.099434 0.202674 1.529121 -15.099458 -0.000001 0.000006 0.000000 5.264580 3.579092 10.848983 6.475013 8.367001 6.368035 2.011413 -7.323815 21.364147 0.000000 -0.000003 -0.000001 0.552462 4.135210 15.717228 2.585515 28.440243 49.448739 -0.000003 23.198765 0.000026 -1.370139 0.937412 5.904128 12.604592 -3.092101 -3.819368 4.958737 -19.016355 -8.084343 -16.138079 -1.566951 -12.127655 -0.000002 0.000001 0.000001 -2.604760 4.001046 20.792740 0.394937 -1.878588 23.742692 0.077860 -0.848916 10.480026 -0.000001 -0.000002 -0.000000 -28.489658 9.362114 4.454727 54.995877 -3.718168 -0.328525 0.423657 -0.577080 1.463731 -29.131460 -0.725740 1.896953 0.000000 -0.000001 0.000000 -14.327005 -7.621538 2.590123 24.657024 2.398145 -4.531299 -12.997211 -0.029253 0.402796 -4.971783 0.000001 -0.000000 -0.000001 -0.000000 0.000000 
0.239954 85.230087 152.059494 1.940115 1.893649 -0.709313 6.185852 -1.177653 0.587126 2.498172 -2.419468 1.232352 2.471489 -2.375261 1.342051 -0.476780 2.129173 -0.237485 -3.193112 4.531020 -1.876713 -0.000000 -0.000000 0.000000 0.352374 -9.169219 -14.380745 9.011961 -24.442279 -57.554582 0.000011 -11.061372 -0.000006 3.271981 3.566763 -10.594318 -2.233897 -4.155358 -17.702602 0.202676 1.529136 -15.099434 0.202674 1.529121 -15.099458 -0.000001 0.000006 0.000000 5.264580 3.579092 10.848983 6.475013 8.367001 6.368035 2.011413 -7.323815 21.364147 0.000000 -0.000003 -0.000001 0.552462 4.135210 15.717228 2.585515 28.440243 49.448739 -0.000003 23.198765 0.000026 -1.370139 0.937412 5.904128 12.604592 -3.092101 -3.819368 4.958737 -19.016355 -8.084343 -16.138079 -1.566951 -12.127655 -0.000002 0.000001 0.000001 -2.604760 4.001046 20.792740 0.394937 -1.878588 23.742692 0.077860 -0.848916 10.480026 -0.000001 -0.000002 -0.000000 -28.489658 9.362114 4.454727 54.995877 -3.718168 -0.328525 0.423657 -0.577080 1.463731 -29.131460 -0.725740 1.896953 0.000000 -0.000001 0.000000 -14.327005 -7.621538 2.590123 24.657024 2.398145 -4.531299 -12.997211 -0.029253 0.402796 -4.971783 0.000001 -0.000000 -0.000001 -0.000000 0.000000 
0.239954 85.230087 152.059494 1.940115 1.893649 -0.709313 6.185852 -1.177653 0.587126 2.498172 -2.419468 1.232352 2.471489 -2.375261 1.342051 -0.476780 2.129173 -0.237485 -3.193112 4.531020 -1.876713 -0.000000 -0.000000 0.000000 0.352374 -9.169219 -14.380745 9.011961 -24.442279 -57.554582 0.000011 -11.061372 -0.000006 3.271981 3.566763 -10.594318 -2.233897 -4.155358 -17.702602 0.202676 1.529136 -15.099434 0.202674 1.529121 -15.099458 -0.000001 0.000006 0.000000 5.264580 3.579092 10.848983 6.475013 8.367001 6.368035 2.011413 -7.323815 21.364147 0.000000 -0.000003 -0.000001 0.552462 4.135210 15.717228 2.585515 28.440243 49.448739 -0.000003 23.198765 0.000026 -1.370139 0.937412 5.904128 12.604592 -3.092101 -3.819368 4.958737 -19.016355 -8.084343 -16.138079 -1.566951 -12.127655 -0.000002 0.000001 0.000001 -2.604760 4.001046 20.792740 0.394937 -1.878588 23.742692 0.077860 -0.848916 10.480026 -0.000001 -0.000002 -0.000000 -28.489658 9.362114 4.454727 54.995877 -3.718168 -0.328525 0.423657 -0.577080 1.463731 -29.131460 -0.725740 1.896953 0.000000 -0.000001 0.000000 -14.327005 -7.621538 2.590123 24.657024 2.398145 -4.531299 -12.997211 -0.029253 0.402796 -4.971783 0.000001 -0.000000 -0.000001 -0.000000 0.000000 
